<svg xmlns="http://www.w3.org/2000/svg" viewBox="0 0 640 480"><title>Google Adwords</title><path d="M441.987 479.98l116.944.02-.118-.274L399.114.51v461.197c10.849 11.221 25.989 18.273 42.873 18.273" fill="#0f9d59"/><path d="M318.775 239.902l66.746 200.32c.02.041.02.078.041.138 2.919 8.109 7.619 15.316 13.495 21.367V.547l-.176-.47-80.106 239.825z" fill="#0a6e3d"/><path d="M238.71.058l-.02.176-.057-.176L78.755 479.743l-.118.257h116.944c16.863 0 32.023-7.051 42.872-18.313 5.876-6.072 10.575-13.258 13.495-21.367.02-.057.02-.098.041-.118L398.918 0H238.69v.057l.02.001z" fill="#4284f4"/></svg>