<svg xmlns="http://www.w3.org/2000/svg" viewBox="0 0 1600 900"><g fill="#fff"><path d="M1373.267 98.46H1599.5v342.412h-226.233z"/><path d="M1600 441.372h-227.233V97.96H1600v343.412zm-226.233-1H1599V98.96h-225.233v341.412z"/></g><path fill="#00bbd4" d="M1373.267 98.229H1599.5v54.986h-226.233z"/><g fill="#d1d3d4"><path d="M1443.171 397.615h136.32v7.736h-136.32zM1443.171 412.604h136.32v7.737h-136.32z"/><circle cx="1409.221" cy="408.978" r="15.946"/></g><path fill="#d1d3d4" d="M1373.267 153.215H1599.5v226.234h-226.233z"/><path fill="#1c5d99" d="M1373.267 153.215h113.117v113.117h-113.117z"/><path fill="#9d9d9d" d="M1486.384 153.215H1599.5v113.117h-113.116z"/><path fill="#00abf4" d="M1373.267 266.353h113.117V379.47h-113.117z"/><path fill="#5cc8ff" d="M1486.384 266.353H1599.5V379.47h-113.116z"/><g fill="#fff"><circle cx="1486.383" cy="268.353" r="23.063"/><path d="M1486.383 291.916c-12.993 0-23.563-10.57-23.563-23.563 0-12.993 10.57-23.563 23.563-23.563s23.563 10.57 23.563 23.563c0 12.993-10.57 23.563-23.563 23.563zm0-46.126c-12.441 0-22.563 10.122-22.563 22.562 0 12.441 10.122 22.562 22.563 22.562 12.442 0 22.563-10.121 22.563-22.562 0-12.44-10.122-22.562-22.563-22.562z"/></g><g><g fill="#fff"><path d="M-108.788 98.088h226.119v342.239h-226.119z"/><path d="M117.831 440.828h-227.119V97.588h227.119v343.24zm-226.119-1.001h225.119V98.589h-225.119v341.238z"/></g><path fill="#5cffbd" d="M-108.788 98.088v90.6l163.663 90.597 62.456-44.863V98.088z"/><path fill="#5cc8ff" d="M-108.788 98.088v63.74l163.663 90.598 62.456-44.862V98.088z"/><path fill="#00abf4" d="M117.331 189.123l-62.456 44.862-40.098-22.196 102.554-74.591z"/><g fill="#d1d3d4"><path d="M-87.454 401.447H95.997v7.733H-87.454zM-87.454 416.429H95.997v7.732H-87.454z"/></g><g fill="#d1d3d4"><path d="M-87.454 353.132H95.997v7.732H-87.454zM-87.454 368.114H95.997v7.732H-87.454z"/></g><g fill="#d1d3d4"><path d="M-87.454 304.816H95.997v7.732H-87.454zM-87.454 319.797H95.997v7.733H-87.454z"/></g><path fill="#d1d3d4" d="M-108.788 339.83h226.119v1.001h-226.119zM-108.788 388.146h226.119v1.001h-226.119z"/></g><g opacity=".25"><path fill="#231f20" d="M1461.401 426.681v-14.405h97.572v162.07h-13.825V426.395z"/><path d="M1559.473 574.846h-14.825V426.897l-83.747.285v-15.407h98.572v163.071zm-13.825-1h12.825v-161.07h-96.572v13.403l83.747-.286v147.953z" fill="#fff"/></g><g opacity=".25"><path fill="#231f20" d="M24.653 424.565V410.16h-97.572v164.071h13.825V424.279z"/><path d="M-58.594 574.731h-14.825V409.659h98.572v15.407l-83.747-.285v149.95zm-13.825-1h12.825V423.777l83.747.285V410.66h-96.572v163.071z" fill="#fff"/></g><g><g fill="#fff"><path d="M-59.594 369.04H197.5v389.118H-59.594z"/><path d="M198 758.659H-60.094V368.54H198v390.119zm-257.094-1.001H197V369.54H-59.094v388.118z"/></g><path fill="#00bbd4" d="M-59.594 368.777H197.5v62.486H-59.594z"/><g fill="#d1d3d4"><path d="M19.846 575.462h154.915v8.792H19.846zM19.846 592.495h154.915v8.791H19.846z"/><circle cx="-18.734" cy="588.374" r="18.121"/><g><path d="M19.846 516.729h154.915v8.792H19.846zM19.846 533.761h154.915v8.793H19.846z"/><circle cx="-18.734" cy="529.641" r="18.121"/></g><g><path d="M19.846 457.996h154.915v8.792H19.846zM19.846 475.029h154.915v8.792H19.846z"/><circle cx="-18.734" cy="470.908" r="18.121"/></g></g><path fill="#d1d3d4" d="M-36.855 632.732h211.616v109.825H-36.855z"/></g><g><g fill="#fff"><path d="M1289.971 369.04h257.236v389.335h-257.236z"/><path d="M1547.708 758.876h-258.236V368.54h258.236v390.336zm-257.237-1.001h256.236V369.54h-256.236v388.335z"/></g><path fill="#00abf4" d="M1289.971 368.778h257.236v218.327h-257.236z"/><path fill="#9d9d9d" d="M1289.971 554.879h257.236v32.226h-257.236z"/><path fill="#0099f3" d="M1289.971 368.778h257.236v60.987h-257.236z"/><g fill="#d1d3d4"><path d="M1314.242 711.152h208.696v8.797h-208.696zM1314.242 728.195h208.696v8.797h-208.696z"/></g><g fill="#d1d3d4"><path d="M1314.242 661.752h208.696v8.796h-208.696zM1314.242 678.795h208.696v8.796h-208.696z"/></g><circle cx="1340.88" cy="554.879" r="26.223" fill="#1c5d99"/><g fill="#fff"><path d="M1371.027 493.41h-1.392v-36.726l-9.484 2.01v-1.185l10.876-2.165v38.066zM1410.51 493.41h-22.447v-1.392l12.809-14.742c2.285-2.646 3.891-4.858 4.819-6.637.928-1.778 1.392-3.518 1.392-5.219 0-2.783-.704-4.927-2.113-6.43-1.408-1.503-3.582-2.255-6.521-2.255-3.075 0-5.455.902-7.139 2.706-1.684 1.804-2.525 4.141-2.525 7.01h-1.186l-.052-.154c-.086-3.042.872-5.627 2.874-7.758 2.001-2.13 4.678-3.196 8.027-3.196 3.076 0 5.52.876 7.333 2.629 1.812 1.752 2.719 4.236 2.719 7.448 0 2.079-.675 4.201-2.023 6.366-1.349 2.165-3.252 4.682-5.708 7.551l-10.747 12.551.051.129h20.438l-.001 1.393zM1419.607 493.41h-2.216v-3.351h2.216v3.351zM1450.715 493.41h-22.447v-1.392l12.809-14.742c2.285-2.646 3.892-4.858 4.819-6.637.928-1.778 1.392-3.518 1.392-5.219 0-2.783-.704-4.927-2.113-6.43-1.408-1.503-3.582-2.255-6.521-2.255-3.075 0-5.455.902-7.139 2.706-1.684 1.804-2.525 4.141-2.525 7.01h-1.186l-.052-.154c-.086-3.042.872-5.627 2.874-7.758 2.001-2.13 4.678-3.196 8.027-3.196 3.076 0 5.52.876 7.333 2.629 1.812 1.752 2.719 4.236 2.719 7.448 0 2.079-.675 4.201-2.023 6.366-1.349 2.165-3.252 4.682-5.708 7.551l-10.747 12.551.051.129h20.438l-.001 1.393zM1474.58 481.786h6.495v1.392h-6.495v10.232h-1.392v-10.232h-18.195v-.773l17.912-26.52h1.675v25.901zm-17.422 0h16.03v-23.942l-.154-.052-2.011 3.325-13.865 20.669z"/></g></g></svg>