<svg id="social-git" data-name="Layer 1" xmlns="http://www.w3.org/2000/svg" viewBox="0 0 78 76.07"><defs><style>.cls-1{fill:#fefefe}</style></defs><title>fi-social-github</title><path class="cls-1" d="M50 12a39 39 0 0 0-12.33 76c2 .36 2.66-.84 2.66-1.88s0-3.37-.05-6.63c-10.85 2.36-13.14-5.23-13.14-5.23-1.77-4.5-4.33-5.7-4.33-5.7-3.54-2.42.27-2.37.27-2.37 3.91.28 6 4 6 4 3.48 6 9.13 4.24 11.35 3.24a8.34 8.34 0 0 1 2.48-5.22c-8.66-1-17.76-4.33-17.76-19.27a15.08 15.08 0 0 1 4-10.47 14 14 0 0 1 .38-10.32s3.27-1 10.73 4a36.87 36.87 0 0 1 19.53 0c7.45-5 10.72-4 10.72-4a14 14 0 0 1 .39 10.32 15.05 15.05 0 0 1 4 10.47c0 15-9.12 18.28-17.81 19.24 1.4 1.21 2.65 3.59 2.65 7.23V86.1c0 1 .7 2.26 2.68 1.87A39 39 0 0 0 50 12z" transform="translate(-11 -11.96)"/></svg>