<svg id="Layer_1" xmlns="http://www.w3.org/2000/svg" viewBox="0 0 134.7 131.6"><style>.st0{fill:#061A40}</style><path class="st0" d="M71.6 75.3l-6.2-4.8c-1.9-1.6-4.5-3.6-4.5-7.4 0-3.8 2.6-6.2 4.8-8.4C73 49 80.2 43 80.2 30.2 80.2 17.1 72 10.2 68 7h10.6l11.2-7H56c-9.3 0-22.7 2.2-32.4 10.3-7.4 6.4-11 15.1-11 23.1 0 13.4 10.3 27 28.5 27 1.7 0 3.6-.2 5.5-.3-.8 2.1-1.7 3.8-1.7 6.7 0 5.3 2.7 8.6 5.2 11.7-7.7.5-22.2 1.4-32.8 7.9C7 92.4 4 101.1 4 107.3c0 12.7 12 24.6 36.9 24.6 29.5 0 45.2-16.3 45.2-32.5-.1-11.9-6.9-17.7-14.5-24.1zM49.1 55.5c-14.8 0-21.5-19.1-21.5-30.6 0-4.5.8-9.1 3.8-12.7 2.8-3.4 7.5-5.7 12-5.7C57.6 6.5 65 25.8 65 38.2c0 3.1-.3 8.6-4.3 12.6-2.7 2.7-7.3 4.7-11.6 4.7zm.2 69.2c-18.4 0-30.2-8.8-30.2-21s11-16.3 14.8-17.7c7.2-2.4 16.5-2.8 18-2.8 1.7 0 2.6 0 3.9.2 13.1 9.3 18.7 13.9 18.7 22.7 0 10.7-8.7 18.6-25.2 18.6zM115 55.3V38.1h-8.5v17.2H89.3v8.6h17.2v17.3h8.5V63.9h17.2v-8.6z"/></svg>
