<svg id="Layer_1" xmlns="http://www.w3.org/2000/svg" viewBox="0 0 640 480"><style>.st0{fill:#136bb0}</style><g id="Logotipo"><path class="st0" d="M129.7 97.4l2.2-7.2c-1.2 0 9.7-16.9 8.5-16.9C60 151.1 67 255.2 105.6 330c26.9 52.2 76.3 101.1 134.9 127.4 27.2 12.2 68.8 23.4 112.4 22.5 93.4-1.9 158.9-46.1 195.8-118.1l2.2-5.6c-32.6 32.9-85.8 55.7-127.4 60C250.2 434 71.7 278.7 129.7 97.4zM359.9 123.9c22.9 36.8 66.6 69.2 134.9 54.7 17.2-3.7 56.3-33.1 63.1-48.6-58.5 39.8-94.9 26.5-112.1 21.4-3.8-1.1-12.6-5-20.7-9.9-18.1-10.9-27.1-15.9-41.2-36.4-7.8-11.3-15.5-29.2-18.1-39.5-4.2-17-3-43.1 4.9-65.6-26.5 23.6-30.6 69.3-21.7 99.5 1.1 3.9 7.4 18.9 10.9 24.4z"/><path class="st0" d="M378.6 318.8c91.7 12.3 160-26.3 183.6-86.2-27 28.6-72.6 49-116.2 48.7-97.6-.6-207.2-88-194.9-209.9 1-10.5 5.2-26.9 16.5-48.3-32.3 40.8-52 74.4-46.5 130.7 7.6 77.5 80.7 154.7 157.5 165z"/></g></svg>