<?xml version="1.0" encoding="UTF-8"?>
<svg width="533px" height="296px" viewBox="0 0 533 296" version="1.1" xmlns="http://www.w3.org/2000/svg" xmlns:xlink="http://www.w3.org/1999/xlink">
    <!-- Generator: Sketch 48.2 (47327) - http://www.bohemiancoding.com/sketch -->
    <title>logo-sql</title>
    <desc>Created with Sketch.</desc>
    <defs></defs>
    <g id="Page-1" stroke="none" stroke-width="1" fill="none" fill-rule="evenodd">
        <g id="logo-sql" fill="#231F1F" fill-rule="nonzero">
            <path d="M265.747,0.102 C263.471,0.102 261.194,0.319 258.938,0.319 C212.963,2.769 181.955,23.002 163.825,62.514 C148.319,98.249 150.012,144.96 163.999,180.914 C180.264,216.045 206.546,234.586 250.415,241.589 C259.697,243.109 265.921,248.205 283.898,269.195 L306.018,295.11 L346.136,295.11 L319.46,268.218 C304.714,253.473 292.787,240.634 292.787,239.506 C292.787,238.379 298.428,235.907 305.256,233.826 C327.766,227.014 346.459,209.624 359.535,182.972 C370.118,161.57 371.637,154.954 373.154,128.326 C377.123,49.066 335.334,-0.487 265.745,0.079 L265.747,0.102 Z M300.92,207.372 C281.403,216.825 253.063,218.712 234.564,211.925 C215.437,204.9 196.918,185.036 188.589,162.548 C179.33,137.957 180.652,92.592 191.235,72.162 C208.258,39.634 230.769,24.672 263.665,24.672 C312.457,24.672 340.214,54.556 343.836,110.72 C346.699,157.605 330.998,192.778 300.941,207.352 L300.92,207.372 Z M73.244,109.051 C41.671,89.923 27.662,76.13 29.375,59.866 C34.275,14.869 89.878,21.093 120.67,38.117 L120.889,7.845 C120.889,7.845 103.865,0.472 79.468,0.081 C42.039,-0.483 17.838,11.79 6.498,36.772 C-10.158,73.637 4.59,101.437 57.894,132.449 C87.819,149.861 101.046,164.977 101.046,181.457 C101.046,215.504 59.996,227.388 17.645,206.027 C8.929,201.69 1.555,198.068 1.165,198.068 C-0.354,207.719 0.429,230.813 0.429,230.813 C0.429,230.813 13.441,236.279 32.956,240.049 C81.356,249.699 125.401,226.995 129.564,190.13 C133.186,155.521 120.671,137.369 73.246,109.026 L73.244,109.051 Z M438.797,108.464 L438.797,2.941 L409.436,2.941 L409.436,236.669 L532.914,236.669 L532.914,209.065 L438.798,209.065 L438.798,108.464 L438.797,108.464 Z" id="Shape"></path>
        </g>
    </g>
</svg>