<svg id="logo" xmlns="http://www.w3.org/2000/svg" x="50" y="50" viewBox="0 0 200 200"><style>.st0{fill:#061a40}</style><path class="st0" d="M81.9 165c-2.2-2.1-4.4-4.3-6.6-6.4-9.8-9.6-19.8-19.1-29.7-28.7-5-4.8-10-9.6-15.1-14.4-2.5-2.4-5.1-4.8-7.6-7.2l-3-2.9c-1-1-1.8-2.1-2.3-3.1-.5-1.1-.6-2.6-.3-3.8.3-1.1.9-2.3 1.7-3.5 9-12.4 18-24.9 27.3-37.7 4.5-6.2 9-12.4 13.6-18.8 2.3-3.2 4.6-6.3 7-9.5 1.8-2.5 3.6-5 5.4-7.4.9-1.2 1.8-2.5 2.7-3.4.9-.9 1.8-1.6 2.6-2.1.5-.3 1-.7 1.4-.9.5-.3.9-.5 1.5-.7s1.4-.2 2.1.2c.7.3 1.1.8 1.4 1.3.3.5.6.9.8 1.5.3.6.5 1.1.8 1.8.5 1.2 1 2.9 1.3 4.9 1.1 9.7 2.2 19.5 3.3 29.5 1 8.3 2 16.8 3 25.2 2 16.6 4 33.1 5.9 48.7-3.9-34.1-7.9-69-11.8-103.7-.2-1.8-.7-3.2-1.1-4.4l-.4-.9c-.1-.3-.2-.5-.4-.7-.2-.5-.5-1-.7-1.4s-.5-.8-.8-1.2c-.4-.4-.8-.8-1.5-1s-1.4-.2-1.9 0c-.5.1-1 .3-1.4.6l-.6.4-.7.4-.7.4c-.2.1-.5.4-.7.5-1 .7-2.1 1.7-3.1 3.1l-6.2 8.6C61.7 35.7 56.4 43 51 50.4 40.2 65.4 29.3 80.2 18.6 95c-.8 1.2-1.4 2.4-1.7 3.6-.3 1.2-.2 2.7.3 3.9.5 1.1 1.2 2.2 2.3 3.2l3.1 3c2.5 2.4 5 4.9 7.6 7.3 5 4.9 10 9.7 15 14.5 9.9 9.6 19.7 19.2 29.4 28.7-7.9-6.4-17-14.2-27.2-23.8-5.7-5.4-11.3-10.8-17-16.2-2.8-2.7-5.6-5.4-8.5-8.1l-3.3-3.1c-.7-.7-1.4-1.3-2-2s-1-1.4-1.3-2.2c-.6-1.3-1-3.2-.8-4.9.1-.8.3-1.5.5-2.3.3-.8.7-1.6 1.3-2.4 11-15.1 21.8-30.1 32.7-45 .3.2.8.5 1 .7 5.4-7.6 10.7-15.2 16.1-22.7 2.4-3.3 4.7-6.5 7-9.8 1.2-1.6 2.4-2.6 3.5-3.2.6-.4 1-.6 1.5-.8l.7-.3.7-.2c.4-.1.9-.3 1.4-.3s1.3 0 2 .2c1.4.5 2.1 1.2 2.7 1.9.3.3.6.8.9 1.2.2.2.3.4.5.7l.5.8c.6 1.2 1.2 2.7 1.4 4.7.7 5.8 1.3 11.5 2 17.2.4 3.3.7 6.5 1.1 9.8.7 6.6 1.5 13.2 2.2 19.8 1.5 13.7 3 27.3 4.5 40.9.4 3.5.8 6.9 1.2 10.4l.5 4.5c0 .4.1.7.2 1.1 0 .2.1.4.1.5.1.2.1.4.3.4.2 0 .2-.2.3-.4.1-.2.1-.3.2-.5.1-.3.1-.7.2-1l.5-4.4c.4-3.4.8-6.8 1.2-10.3 1.6-13.8 3.2-28.2 4.6-42.5-.4 2-.4-.1-.5-1 0-.2 0-.3.1-.5 0 .1 0 .3-.1.5-.1-.9-.2-.9-.7 3 .5-3.9.6-3.8.7-3-1.5 13-3 25.9-4.5 38.6-.4 3.2-.8 6.3-1.1 9.5l-.5 3.8c0 .2-.1.4-.1.6 0 .1-.1.2-.1.3 0 .1-.1.2-.2.1-.2-.3-.2-.8-.3-1.2l-.5-4.1c-.4-3.2-.7-6.3-1.1-9.5-3.2-27.7-6.3-55.4-9.5-83.5-.2-1.9-.8-3.5-1.4-4.7l-.5-.8c-.2-.3-.3-.5-.5-.7l-1-1c-.6-.6-1.2-1.1-2.2-1.7-.5-.3-1.3-.5-2-.6-.6-.1-1.2-.1-1.6 0-.5.1-.8.1-1.3.3-.4.1-.9.3-1.4.5-.9.3-2.1 1-3.2 2-1.2 1-2.4 2.7-3.5 4.3l-3.5 4.8C62.1 31 56.7 38.5 51.2 46c5.4-7.4 10.8-14.9 16.1-22.3l3.5-4.9c1.2-1.6 2.3-3.4 3.6-4.4 1.2-1.1 2.3-1.8 3.3-2.1.5-.2 1-.4 1.4-.5s.8-.2 1.3-.3 1-.1 1.6 0c.6 0 1.4.3 2 .5 1.1.5 1.7 1 2.3 1.7.3.3.6.8 1 1.1.1.1.2.2.2.3l.2.4.5.8c.6 1.2 1.2 2.7 1.4 4.7 2.8 23.9 5.6 47.4 8.4 71l1.8 15.5.9 7.7.1.5c0 .1 0 .2.1.3 0 .1 0 .2.2.3.1-.1.1-.2.1-.3 0-.1 0-.2.1-.3l.1-.6.5-3.9.9-7.8 1.8-15.6c1.2-10.4 2.4-20.8 3.7-31.2.6-5.2 1.2-10.4 1.8-15.5l1.2-9.9c.4-3.7.9-7.5 1.3-11.2.2-1.9.6-3.5 1.3-4.5.1-.3.3-.5.5-.7l.5-.7c.3-.3.6-.7.9-1l.9-.8.8-.6c.3-.2.9-.5 1.5-.6.7-.2 1.3-.3 1.8-.2h.5l.5.1c.4.1.7.1 1.1.2.4.1.8.2 1.3.4l.7.3c.2.1.5.3.8.4.5.3 1.1.8 1.6 1.2l.7.5c.3.3.6.7.8 1.1l3.3 4.6c2 2.8 4 5.7 6 8.5l13.8 19.5c9.2 13 18.5 26.1 27.9 39.3.9 1.3 2 2.9 3.3 4.6.2.2.3.4.5.7l.1.1s-.1-.1 0 0c.2.4.4.6.7 1.1.4.9.9 2.2.9 3.9 0 1.7-.6 3.1-1.2 3.9-.1.2-.3.4-.4.6l-.3.4c-.1.1-.2.3-.3.3l-.3.3c-.3.3-.5.5-.7.6l-.2.2-.1.1c-.7.7-1.4 1.5-2.2 2.2-3.3 3.3-6.6 6.7-8.8 8.9-18.3 17.1-36.2 34.6-53.8 52.4 3.3-5.5-16.6 10 19.1-25.1l-.9-.9c-36.4 34.4-52.7 44.6-18.4 8.2 9.7-10.2 20.3-21.1 31.6-32.6 5.6-5.7 11.4-11.5 17.3-17.5 1.5-1.5 3-3 4.4-4.5l1.1-1.1.3-.3c.2-.2.4-.4.6-.5l.4-.3c.1.1-.2-.2.2.3l1.5 1.6c.3.3.5.6.8.9l.6.6c.2.2.4.3.5.4.2.2.5.4.6.5.4.2.5.3.6.3s-.1 0-.3.1c-.1 0-.2.1-.4.2-.1 0-.2.1-.2.2-9.2 6.5-2.6 1.8-4.6 3.2l-.9-1.3c-2.4-3.5-4.9-7-7.4-10.5-9.9-14.1-20.1-28.4-30.2-42.8-2.5-3.5-5-7.1-7.5-10.6l-.5-.7-.1-.2c0-.1-.2 0-.1.1v1.1l-.5 3.4c-4.2 27.6-8.5 55.5-12.9 83.3l-6.6 41.5-.8 5.2-.2 1.3-.1.3c0 .1 0 .3-.1.2l-.1.1c-.2.1-.4.2-.6.2-.2.1-.4.1-.7.2-.3 0-.5.1-1 .1h-1.1c-.3 0-.5-.1-.7-.1-.3-.1-.6-.1-.8-.2l-.6-.3c-.1 0-.2-.1-.3-.2l-.1-.1-.1-.1-.1-.3-.8-5.3-1.6-10.6c-3.1-20.6-6.2-41.7-9.4-63C84.5 81.2 83 70.6 81.4 60L79 44.1l-1.2-7.9v-1.4l-.1-1c0-.2 0-.4-.1-.5-.1-.2-.3-.1-.4 0-.4.5-.8 1-1.3 1.6C71.5 41 67 47 62.6 53.1c-9.7 13.2-19.3 26.3-28.8 39-1.4 1.9-3 4-4.6 6.3-.1.2-.3.4-.4.6s-.2.5 0 .7c.3.4.7.7 1.1 1 2.4 2.2 4.9 4.6 7.4 6.9 5.2 4.8 10.4 9.7 15.3 14.2 9.8 9.2 18.2 17.1 22 21.2 6.2 6.5 6 7.2 4.5 6.8-9.7-9.2-19.4-18.4-29.1-27.5-4.8-4.6-9.7-9.1-14.5-13.7-2.4-2.2-4.7-4.4-7-6.7-.6-.6-1.4-1.2-2-1.9-.2-.4-.2-.9 0-1.3l.8-1.1c8.3-11.4 16.4-22.7 24.5-33.9l19.1-26.2 3.8-5.2 2.3-3.2c.4-.5.7-1.1 1.2-1.5.2-.2.6-.4.9-.2.3.1.4.5.5.8.2 1.3.3 2.6.4 3.9 0 1.5 1.4 11.2 2.3 18.2l3 22.4 6.2 45.3c-2-14.9-4-30-6-45.1l-3-22.5c-.5-3.7-1-7.5-1.5-11.2l-.4-2.8-.2-.4-.1-.5-.1-.6-.2-2.6c-.2-1.3-.2-2.7-.5-4-.1-.3-.2-.7-.5-.8-.3-.2-.7 0-.9.2-.5.4-.8 1-1.2 1.5-2.1 2.8-4.1 5.6-6.2 8.5-6.4 8.6-12.7 17.4-19.1 26.2C43.4 75.2 35.2 86.4 27 97.7l-.8 1.1c-.3.4-.3.9-.1 1.3.6.7 1.3 1.3 2 2l6.9 6.6 14.2 13.6 28.4 27.1c-1.5-.5-3-1-1.6 1.1 0 0 9.1 8.6 13.7 12.9 4.3 4.6 7.1 7.8 8.8 10 .4.6.7 1 1.1 1.5.5.6 1.3.9 1.8.9 1.2 0 1.9-.5 2-.3.1.1.1.3-.2.6-.2.3-.7.7-1.4 1-.7.3-1.8.4-2.9-.1-.2 0-.8-.5-.8-.4-.1 0 .1.1-.1-.1h-.1l-.1-.1c-.2-.1-.4-.2-.6-.4-1.7-1-4-2.6-6.6-4.4-2.7-1.9-5.6-4.1-8.7-6.6z"/><path class="st0" d="M76.8 103.2c-.5.1-1 .3-1.6.4-4.8 1.1-9.6 1.8-14.5 2.4s-10 1-15.4 1c-7.5-.2-16.1.3-23.6-.2 8.9.8 18.1.7 27.1.3 4.5-.2 9-.5 13.4-1s8.8-1.1 13-2.2c-1.7.8-3.7 1.8-6.1 2.5-5.7 1.5-11.4 2.3-17.1 2.9v-1.2c-5.5.9-11 1.2-16.4 1.1-5.4-.2-10.8-.6-16.2-1.4l-.3-8.5c4.8.1 9.7.1 14.6-.1-.6-.1-.2-.3-.1-.4h.1-.1c.1-.1 0-.2-1-.2 1 0 1.1.1 1 .2-4.9-.1-9.7-.2-14.5-.2l.3 10.2c5.3 1 10.6 1.2 15.9 1.3 5.3.1 10.6-.1 16.1-.5-5.4.5-10.7.8-16 .8-2.7 0-5.3-.1-8-.3-2.7-.2-5.3-.4-8-1L19 98c13.6.2 27.3.7 41.5 1.4 1.1.1 3.2.2 4.3.2 4.3.5 8.6.8 12.9 1-.5.1.3.3.1.4-.1.1-1.2.2-5.5.2v.3c4.3.1 7.3.1 8.1.2.4.1.3.1-.5.3-.8.2-2.2.4-4.3.7-4.8.8-10.4 1.5-16.3 2.2s-12 1.3-17.9 2.2c-7.3 1-14.7 2-22.1 2.4L19 97.4c1.2-.3 2.4-.6 3.6-.7 5.9-.8 12-1 18.2-.9s12.4.7 18.3 1.7c2.2.3 5.1.4 7.8.8 2.7.3 5.1.7 6.2 1.1 1.6.5 1.6.7 1.4 1-7.1-.8-14.1-1.2-21.1-1.4-8.6-.5-17.1-.9-25.6-.7 8.3.1 16.9.4 25.6.7 7 .4 13.9 1 20.9 1.6-.2.2-.5.5 0 .8h3.2c2.2.2 3 .2 3 .3 0 .1-.8.3-1.8.8-.6.1-1.2.4-1.9.7zM159.3 75c-.4.3-.7.6-1.1.9-3.2 2.7-6.2 5.2-9.4 7.8-3.1 2.6-6.3 5.2-9.9 7.7-5.1 3.3-10.3 7.8-15.1 11.5 5.8-4.1 11.7-8.6 17.5-13l8.7-6.6c2.9-2.2 5.8-4.3 8.8-6.7-.5 1.7-1.4 3.3-2.8 4.7-3.8 3.1-7.4 6-11.1 8.9-.2-.2-.6-.7-.8-1-4.7 4.6-9.9 8.2-15 11.8l-6 4.2c-.2.1-.4.3-.6.5-.2.1-.3.4-.1.6.3.4.7.8 1.1 1.1.1-.2.4-.2.6-.3.2-.1.3-.1.2-.2 0 .1-.1.1-.2.2-.2-.2-.3-.4-.5-.7-.1-.1 0-.3.1-.4l.3-.3c1.8-1.4 3.6-2.7 5.4-4 4.9-3.7 9.9-7.4 15.1-11.3-6.8 5.3-13.4 10.5-20.1 15.7l-.1.1v.2l.2.3.1.1.1.2 1 1.6c.6 1.1 1.3 2.1 1.9 3.2 2.5 4.3 5 8.6 7.4 13.2.4.8 1.2 2.3 1.6 3.1.4 1.8.9 3.6 1.5 5.3.3.9.6 1.8.9 2.6.3.9.7 1.9 1 2.8-.9-.2-1.8.9-2.7 1-.4.1-.9 0-1.4-.6-.2-.3-.5-.7-.7-1.2-.3-.5-.5-1.2-.8-2-.3.1-.9.4-1.1.5.2.9.3 1.7.3 2.5s-.1 1.5-.2 2.1c-.3 1.2-.9 2-1.5 2.4-.3.2-.7.4-1 .4-.4 0-.7-.1-1.1-.2-.4-.1-.7-.3-1-.6-.4-.3-.8-.8-1.2-1.4-1.8-2.8-3.8-6.8-5.9-10.8-2.1-4.1-4.3-8.4-6.9-12.3-.9-1.4-1.8-2.9-2.8-4.3-.9-1.5-1.8-2.9-2.7-4.3-.6-1.5-1.6-3-1.6-4.3-.1-.4-.1-.7-.1-1s0-.7.1-1.1c.1-.7.3-1.5.6-2.1.6-1.2 1.3-2.5 2.7-3.5l1.9-1.6 2.1-1.5.9-.7.5-.3c.4-.2.7-.5 1.1-.7 8-4.9 15.8-11.5 23.5-16.6 1.4-1 3-2.6 4.4-4.1 1.5-1.5 2.7-2.7 3.7-3 1.1-.5 1.6-.1 2 .6-3.8 3.8-8 7.4-12.3 10.9-5.4 4.1-10.9 8-16.6 11.7 5.7-3.4 11.3-7.4 16.6-11.7 4.4-3.3 8.7-6.7 12.6-10.3.3.6.7 1.2 1.4 1.4 0 0 1.2-1.2 1.7-1.9 1.6-.8 2.9-.8 3.6-.2.8.6 1.1 1.7 1.1 2.9.3.7.2 1.5.1 2.1z"/></svg>