<svg xmlns="http://www.w3.org/2000/svg" viewBox="0 0 300 120"><path d="M273.599 18.111c4.64 0 8.766-4.123 8.766-9.28 0-4.897-4.126-8.765-8.766-8.765-4.897 0-9.278 3.866-9.278 8.765 0 5.156 4.381 9.28 9.278 9.28zm0-1.288c-4.637 0-7.989-3.351-7.989-7.991 0-4.125 3.352-7.475 7.989-7.475a7.48 7.48 0 0 1 7.475 7.475c.001 4.64-3.348 7.991-7.475 7.991z" fill="#234b8d"/><path d="M271.28 9.863h3.093c1.29 0 1.548.773 1.548 1.547 0 .259 0 1.804.258 2.578h1.548v-.515c-.258-.259-.516-.259-.516-.774v-1.547c0-1.289-.514-1.547-1.032-1.804.774-.515 1.29-1.032 1.29-2.577 0-1.804-1.548-2.578-3.096-2.578h-4.381v9.796h1.288V9.863zm0-4.381h3.093c.774 0 1.804 0 1.804 1.547 0 1.289-1.032 1.547-2.062 1.547h-2.836V5.482h.001zM18.409-.189h118.573v118.83H18.409zM260.969-.189H142.138v118.83z" fill="#234b8d"/><path d="M111.979 106.528h9.28c13.662 0 16.24-11.6 15.724-14.951-.773-8.248-6.959-13.404-15.466-13.404H98.832v41.501h13.147v-13.146zm0-9.797v-9.022h5.67c4.64 0 6.444 1.032 6.444 4.382 0 1.547 0 4.64-5.155 4.64h-6.959z" fill="#fff"/><path d="M70.22 110.908h13.147l3.351 8.763h13.919L84.912 78.172H69.189l-15.981 41.501h13.404l3.608-8.765zm6.961-21.136l4.64 12.371H72.8l4.381-12.371z" fill="#fff"/><path d="M17.635 106.528v2.321c0 8.248 10.052 11.341 19.591 11.341 12.888 0 20.622-4.64 20.622-13.66 0-14.436-25.777-10.054-25.777-18.559 0-3.095 2.321-4.125 5.929-4.125 2.319 0 3.093.515 3.866 1.032 1.547 1.032 1.547 2.321 1.547 4.64h13.662v-1.032c0-6.186-5.414-11.343-19.074-11.343-14.951 0-19.591 5.671-19.591 12.373 0 14.693 25.777 10.052 25.777 19.074 0 1.804-1.547 4.382-6.96 4.382-4.382 0-5.929-2.062-5.929-5.156v-1.288H17.635z" fill="#fff"/></svg>