<svg data-name="Layer 1" xmlns="http://www.w3.org/2000/svg" viewBox="0 0 77 62.58"><title>fi-social-twitter</title><path d="M77 7.41a31.56 31.56 0 0 1-9.07 2.49 15.84 15.84 0 0 0 6.94-8.74 31.58 31.58 0 0 1-10 3.83A15.81 15.81 0 0 0 37.92 19.4 44.85 44.85 0 0 1 5.36 2.89a15.82 15.82 0 0 0 4.89 21.1 15.76 15.76 0 0 1-7.16-2v.2A15.81 15.81 0 0 0 15.76 37.7a15.86 15.86 0 0 1-7.13.27 15.82 15.82 0 0 0 14.76 11A31.9 31.9 0 0 1 0 55.48a44.71 44.71 0 0 0 24.22 7.1c29.06 0 44.95-24.07 44.95-44.94v-2A32 32 0 0 0 77 7.41z"/></svg>