<svg xmlns="http://www.w3.org/2000/svg" viewBox="0 0 640 480"><path d="M113.7 240.5c0 81.7 47.5 152.3 116.3 185.7l-98.4-269.7c-11.5 25.7-17.9 54.1-17.9 84zm345.6-10.4c0-25.5-9.2-43.2-17-56.9-10.5-17-20.3-31.4-20.3-48.4 0-19 14.4-36.6 34.6-36.6.9 0 1.8.1 2.7.2-36.7-33.7-85.6-54.2-139.3-54.2-72.1 0-135.5 37-172.4 93 4.9.2 9.4.3 13.3.3 21.6 0 55-2.6 55-2.6 11.1-.7 12.4 15.7 1.3 17 0 0-11.2 1.3-23.6 2l75.1 223.5L313.9 232l-32.1-88.1c-11.1-.6-21.6-2-21.6-2-11.1-.7-9.8-17.7 1.3-17 0 0 34.1 2.6 54.3 2.6 21.6 0 55-2.6 55-2.6 11.1-.7 12.4 15.7 1.3 17 0 0-11.2 1.3-23.6 2L423 365.6l20.6-68.8c10.5-26.8 15.7-49 15.7-66.7zm-135.7 28.5l-61.9 179.9c18.5 5.4 38 8.4 58.3 8.4 24 0 47.1-4.1 68.5-11.7-.5-.9-1.1-1.8-1.5-2.9l-63.4-173.7zm177.5-117.1c.9 6.6 1.4 13.6 1.4 21.2 0 20.9-3.9 44.5-15.7 73.9l-63 182.2c61.3-35.8 102.6-102.2 102.6-178.3-.1-35.9-9.2-69.6-25.3-99z" fill="#fff"/><path d="M79.5 240.5C79.5 373.1 187.4 481 320 481s240.5-107.9 240.5-240.5S452.6 0 320 0 79.5 107.9 79.5 240.5zm11 0C90.5 114 193.5 11 320 11s229.5 103 229.5 229.5S446.5 470 320 470 90.5 367.1 90.5 240.5z" fill="#fff"/></svg>