<svg id="Layer_1" xmlns="http://www.w3.org/2000/svg" viewBox="0 0 141.7 141.7"><title>Bootstrap</title><style>.st0{fill:url(#SVGID_1_)}.st1{fill:#fff}</style><g id="Layer_1_1_"><linearGradient id="SVGID_1_" gradientUnits="userSpaceOnUse" x1="4.72" y1="19.003" x2="127.08" y2="113.588" gradientTransform="matrix(1 0 0 -1 0 141)"><stop offset="0" stop-color="#101034"/><stop offset="1" stop-color="#612d50"/></linearGradient><path class="st0" d="M141.7 122.7c0 10.5-8.5 19-19 19H19c-10.5 0-19-8.5-19-19V19C0 8.5 8.5 0 19 0h103.7c10.5 0 19 8.5 19 19v103.7z"/><path class="st1" d="M34.1 26.5h41.4c23.4 0 28.5 16.7 28.5 23.2 0 13.3-7.5 16.7-11.3 18.2 5.7 1.6 15 6.5 15 23.4 0 4.8-.6 23.9-31.1 23.9H34.1V26.5zM57 61.2h12.6c9.3 0 10.3-6.1 10.3-9 0-2.7-1.7-8.7-10.1-8.7H57v17.7zm0 38.5h14.4c12 0 12.7-8.5 12.7-11.4 0-2.8-1-11.3-12.8-11.3H57v22.7z"/></g></svg>