<svg id="Layer_1" xmlns="http://www.w3.org/2000/svg" viewBox="0 0 538.6 538.6"><title>CSS</title><style>.st0{fill:#2062af}.st1{fill:#3c9cd7}.st2{fill:#fff}.st3{fill:url(#SVGID_1_)}.st4{fill:url(#SVGID_2_)}.st5{fill:url(#SVGID_3_)}.st6{fill:#fff}.st7{fill:url(#SVGID_4_)}.st8{fill:#fff}</style><path class="st0" d="M463.6 486l-194.3 52.4L74.9 486 30.1.2h478.4L463.6 486z"/><path class="st1" d="M269.2 39.4v457.2l.4.1 157.2-42.4L463 39.4H269.2z"/><path class="st2" d="M269.1 161L130 218.9l4.6 57.4 134.5-57.5 143.1-61.2 6-58.6-149.1 62z"/><linearGradient id="SVGID_1_" gradientUnits="userSpaceOnUse" x1="-846.402" y1="1870.467" x2="-846.402" y2="1985.755" gradientTransform="matrix(1 0 0 -1 1045.93 2146.759)"><stop offset=".387" stop-color="#d1d3d4" stop-opacity="0"/><stop offset="1" stop-color="#d1d3d4"/></linearGradient><path class="st3" d="M130 218.9l4.6 57.4 134.6-57.5V161L130 218.9z"/><linearGradient id="SVGID_2_" gradientUnits="userSpaceOnUse" x1="-702.364" y1="1927.968" x2="-702.364" y2="2047.822" gradientTransform="matrix(1 0 0 -1 1045.93 2146.759)"><stop offset=".387" stop-color="#d1d3d4" stop-opacity="0"/><stop offset="1" stop-color="#d1d3d4"/></linearGradient><path class="st4" d="M418 98.9L269 161v57.8l143.1-61.2 5.9-58.7z"/><linearGradient id="SVGID_3_" gradientUnits="userSpaceOnUse" x1="-915.817" y1="1819.173" x2="-639.013" y2="1819.173" gradientTransform="matrix(1 0 0 -1 1045.93 2146.759)"><stop offset="0" stop-color="#e8e7e5"/><stop offset="1" stop-color="#fff"/></linearGradient><path class="st5" d="M130.1 218.9l4.6 57.4 206.3.7-4.6 76.5-67.9 19.1-65.2-16.6-4-47.5h-60.6l7.8 91.6 122.6 36.2 122-35.7 15.8-181.9H130.1v.2z"/><path d="M269.1 218.9H130l4.6 57.4 134.5.4v-57.8zm0 153.4l-.7.1-65.2-16.4-4-47.5h-60.6l7.8 91.6L269 436.3v-64.1h.1z" class="st6"/><linearGradient id="SVGID_4_" gradientUnits="userSpaceOnUse" x1="-928.516" y1="2018.501" x2="-627.883" y2="2018.501" gradientTransform="matrix(1 0 0 -1 1045.93 2146.759)"><stop offset="0" stop-color="#e8e7e5"/><stop offset="1" stop-color="#fff"/></linearGradient><path class="st7" d="M117.4 98.9H418l-6 58.6H124.7l-7.3-58.6z"/><path class="st8" d="M269.1 98.9H117.4l7.3 58.6h144.4V98.9z"/></svg>