<svg xmlns="http://www.w3.org/2000/svg" viewBox="0 0 72 72" fill="#061A40"><title>fi-social-linkedin</title><path d="M66.67 0H5.32A5.25 5.25 0 0 0 0 5.19v61.62A5.26 5.26 0 0 0 5.32 72h61.35A5.27 5.27 0 0 0 72 66.81V5.19A5.27 5.27 0 0 0 66.67 0zM21.35 61.35H10.67V27h10.68v34.35zM16 22.3a6.19 6.19 0 1 1 6.2-6.2 6.19 6.19 0 0 1-6.2 6.2zm45.35 39.05H50.68v-16.7c0-4-.08-9.11-5.55-9.11s-6.4 4.34-6.4 8.82v17H28.05V27H38.3v4.69h.15a11.23 11.23 0 0 1 10.11-5.55c10.81 0 12.8 7.11 12.8 16.37v18.84z"/></svg>
