<?xml version="1.0" encoding="UTF-8"?>
<svg width="344px" height="643px" viewBox="0 0 344 643" version="1.1" xmlns="http://www.w3.org/2000/svg" xmlns:xlink="http://www.w3.org/1999/xlink">
    <!-- Generator: Sketch 48.1 (47250) - http://www.bohemiancoding.com/sketch -->
    <title>logo-crazyegg</title>
    <desc>Created with Sketch.</desc>
    <defs></defs>
    <g id="Page-1" stroke="none" stroke-width="1" fill="none" fill-rule="evenodd">
        <g id="logo-crazyegg" fill="#000000" fill-rule="nonzero">
            <g id="Group" transform="translate(171.950000, 321.600000) scale(-1, 1) rotate(-180.000000) translate(-171.950000, -321.600000) translate(0.700000, 0.700000)">
                <path d="M160.2,640.8 C142.3,637.6 116.3,623.4 94.9,605.1 C57.1,573 25.9,527.1 11.3,482.5 C6.7,468.5 5.5,463.6 1.6,442.5 C-0.3,432.1 -0.5,389.5 1.2,376.5 C3.2,361.9 7.9,338.2 10.4,330 C19.1,301.6 27.4,282.6 39.6,263.5 C42.9,258.3 46.9,251.7 48.3,248.9 C55.1,236 70.4,211.9 82.5,194.9 C109.2,157.3 123.4,135.1 131,119 C132.3,116.3 133.8,113.2 134.3,112.3 C136,109.3 135.4,108.1 131.4,105.8 C129.3,104.6 126.1,102.3 124.3,100.8 C120.9,98 115.3,90 115.3,88 C115.3,85.2 144,81 169.3,80.2 C180.8,79.8 199.4,81.1 204.6,82.7 C207.1,83.5 208.7,83.5 209.4,82.8 C211.3,80.9 200.1,77.7 183.8,75.5 C173.8,74.1 135,75 123.9,76.9 C118.4,77.9 113.6,78.8 113.1,79.1 C112.7,79.4 112.3,65.8 112.3,48.8 C112.3,14.3 112.6,13 119.6,6.9 C127.1,0.2 129,0 176.3,0 C215.5,0 219.2,0.1 223.8,1.9 C230.7,4.5 234.9,7.8 237.6,12.8 C239.7,16.9 239.8,17.7 239.8,49.5 L239.8,82 L236.7,88.5 C232.7,96.8 226.5,103 218.3,106.8 C214.7,108.5 211.7,109.9 211.5,110.1 C210.9,110.5 215.4,119.8 239.5,168 L263.5,216 L273.7,226.5 C279.3,232.3 285.9,239.5 288.4,242.5 C293.5,248.7 300.3,258.2 300.3,259.1 C300.3,259.4 302.1,262.3 304.4,265.6 C308.3,271.4 320.3,294.5 320.3,296.2 C320.3,296.7 321.2,298.9 322.2,301.1 C323.8,304.4 329,319.2 332.2,330 C332.7,331.7 334.3,338.2 335.6,344.5 C341.5,371.3 342.5,381.2 342.5,409.5 C342.5,433.6 342.3,435.8 338.4,456.3 C328.1,509 293.3,566.3 248,605 C244.8,607.8 236.9,613.7 230.5,618.1 C203.8,636.9 180.3,644.5 160.2,640.8 Z M186.4,630.8 C204.8,624.4 244.7,594.3 266.1,570.7 C304.7,527.9 325,483.1 329.3,431 C331.4,404.4 326.9,362.8 319.1,337.5 C314.5,322.8 311.1,313 308.8,307.9 C307.4,304.9 306.3,302.2 306.3,301.9 C306.3,301.2 295.3,279.3 292.3,274 C281.4,254.7 260.9,228.1 246,213.8 C236.6,204.8 235.9,205.3 244,215.3 C255.1,229 274.7,261.1 281.2,276.5 C282.5,279.5 284.6,284.3 285.8,287 C290.5,297.6 293.2,304.6 296.5,315.5 C299.1,324.3 303.4,341.7 303,342.1 C302.8,342.3 300,339.9 296.7,336.8 C280.5,321.5 259.5,311 235.2,306.1 C215.1,302 192.1,303.2 168.8,309.4 C153,313.7 133.5,325 121.1,337.1 C106.8,351.1 99.1,366 96.3,385.1 C92.3,412.1 108.2,442.1 136.3,460.7 C143.4,465.4 159.2,473.5 161.3,473.5 C161.9,473.5 163.1,473.9 164.1,474.5 C167,476.1 186.4,480.4 194.3,481 C209.2,482.4 212,482.3 223.9,481 C253.2,477.6 276.9,467.2 295.7,449.5 C299.5,445.9 302.3,443.9 301.9,445 C301.5,446.1 300,450.8 298.7,455.4 C293.2,474.1 283.2,494.7 270.6,513 C251,541.6 218.5,569.5 182.8,588.5 C173.4,593.5 155.8,601.4 148,604.1 C144,605.5 139.9,607 138.8,607.5 C137.7,608 134.1,609.1 130.8,610 C121.3,612.6 121.7,612.2 124.4,615.1 C125.7,616.6 129.4,619.5 132.5,621.6 C148,632.2 171,636.1 186.4,630.8 Z M90.7,207.7 C108.9,194.1 133.2,184.5 157.3,181.5 C161.9,181 165.9,180.5 166,180.5 C166.2,180.5 166.3,164.8 166.3,145.5 L166.3,110.5 L156.5,110.5 L146.7,110.5 L141.8,120.8 C132.5,140.1 115.3,167.3 92,199.7 C82.2,213.4 82,214.2 90.7,207.7 Z M244.1,200.7 C244,200.3 235.5,183.3 225.3,163 C215.1,142.6 205.2,122.5 203.4,118.3 L200,110.5 L188.1,110.5 L176.3,110.5 L176.3,145.4 L176.3,180.4 L181.1,181 C192.3,182.4 200,183.7 203.3,184.7 C209,186.4 218.7,189.6 220.8,190.4 C225.6,192.4 240.5,200 240.9,200.7 C241.6,201.7 244.6,201.8 244.1,200.7 Z" id="Shape"></path>
                <path d="M198.8,445.3 C191.4,443.8 178.6,439.6 174.4,437.2 C172.4,436.1 169.5,434.5 167.9,433.7 C166.3,432.9 162,429.2 158.3,425.6 C151.9,419.3 148.4,414.1 145.6,406.5 C144,402.2 143.8,386.7 145.4,382.9 C152.4,365.5 162.6,355.7 180.9,348.7 C190.5,345 205.9,342.3 216.3,342.6 C230.8,342.9 248.9,346.7 257.3,351 C267.3,356.2 266.9,366.7 256.4,371.1 C251.5,373.1 246.2,372.8 234.4,369.9 C213,364.5 196.9,368.4 188.2,381.1 C184.5,386.5 183.3,395.2 185.3,402.3 C186.9,408.5 193.4,415.2 201.3,418.8 C207.1,421.5 208.8,421.8 217.3,421.8 C223.3,421.8 228.8,421.2 232.3,420.1 C246.8,415.7 255.2,416.1 260.8,421.5 C266.6,427.1 265.6,434.8 258.6,438.3 C245.1,445.2 216,448.6 198.8,445.3 Z" id="Shape"></path>
            </g>
        </g>
    </g>
</svg>