<?xml version="1.0" encoding="UTF-8"?>
<svg width="476px" height="499px" viewBox="0 0 476 499" version="1.1" xmlns="http://www.w3.org/2000/svg" xmlns:xlink="http://www.w3.org/1999/xlink">
    <!-- Generator: Sketch 48.1 (47250) - http://www.bohemiancoding.com/sketch -->
    <title>mc_freddie_color_web</title>
    <desc>Created with Sketch.</desc>
    <defs></defs>
    <g id="Page-1" stroke="none" stroke-width="1" fill="none" fill-rule="evenodd">
        <g id="mc_freddie_color_web">
            <path d="M468.499,356.365 C468.111,357.634 431.452,498.541 287.415,498.499 C162.905,498.461 103.889,390.236 103.889,390.236 C94.815,390.742 86.059,389.301 77.983,386.334 C41.453,372.914 23.926,331.122 36.53,296.06 L16.453,280.717 C-61.319,221.472 158.995,-49.635 236.902,11.711 C237.296,12.021 255.499,26.673 255.499,26.673 C283.472,9.686 311.175,0.503 333.694,0.502 C349.686,0.5 363.061,5.13 372.068,14.883 C392.289,36.777 385.022,78.586 357.41,120.915 C363.349,126.553 368.271,134.216 371.784,141.823 C380.562,148.596 386.252,158.893 389.079,173.114 C392.227,188.927 392.879,211.451 394.855,221.13 C402.301,224.491 399.129,222.935 407.068,226.901 C415.346,231.038 425.426,236.076 436.566,246.795 C456.367,251.756 463.928,272.808 452.342,287.176 C452.031,287.561 450.632,289.219 449.183,290.868 C449.529,291.78 453.327,297.933 456.068,310.46 C464.273,312.398 470.809,317.45 474.239,324.776 C480.171,339.114 468.499,356.365 468.499,356.365 Z M411.4,462.78 L411.4,468.678 L413.659,468.678 L413.659,462.78 L415.969,462.78 L415.969,460.919 L409.12,460.919 L409.12,462.78 L411.4,462.78 Z M416.66,460.919 L416.66,468.678 L418.72,468.678 L418.72,463.076 L420.403,468.678 L422.16,468.678 L423.843,463.061 L423.843,468.678 L425.903,468.678 L425.903,460.919 L422.682,460.919 L421.291,465.384 L419.879,460.919 L416.66,460.919 Z" id="Fill-1" fill="#5B453E"></path>
            <path d="M133.272,303.343 C136.409,295.37 137.99,288.826 137.99,288.826 C141.581,299.804 143.418,311.35 142.697,323.021 C145.674,319.06 148.87,311.6 148.87,311.6 C154.408,344.202 130.616,374.045 99.272,374.045 C71.443,374.045 48.884,350.296 48.884,321 C48.884,291.703 71.443,267.954 99.272,267.954 C106.485,267.954 113.345,269.55 119.55,272.425 C119.55,272.424 130.26,277.824 133.272,303.343 Z M407.463,418.307 C446.525,387.616 453.349,350.652 454,349.378 C463.612,337.85 460.999,326.493 448.301,326.492 C444.261,326.492 441.209,327.558 441.209,327.558 C441.209,327.558 441.256,310.736 433.475,297.635 C427.476,304.381 410.826,317.745 388.979,328.117 C368.491,337.844 341.154,346.362 307.276,347.49 L307.275,347.49 C297.789,347.902 291.921,346.358 288.617,357.417 C287.562,361.324 288.018,367.128 288.812,368.806 C291.484,377.966 298.466,382.003 307.656,384.141 C314.625,385.764 322.026,385.917 322.026,385.917 C390.733,387.843 445.905,334.257 446.564,333.812 C447.202,333.289 447.73,332.67 447.73,332.67 C447.73,332.67 447.124,334.091 447.052,334.252 C437.128,356.569 379.67,397.039 322.478,395.88 L322.29,395.947 C309.026,395.896 292.911,392.482 284.533,382.093 C271.277,365.656 278.156,338.325 299.283,337.685 C299.309,337.684 304.167,337.572 306.329,337.517 C358.638,335.909 405.574,316.691 439.18,276.559 C443.801,270.818 438.639,262.933 428.624,262.693 C428.536,262.691 428.451,262.653 428.391,262.589 C416.517,249.875 406.08,245.383 396.792,240.664 C377.324,230.746 379.156,239.313 374.628,191.208 C373.403,178.239 370.947,160.552 359.553,153.771 C356.567,151.993 353.303,151.231 349.914,151.231 C346.565,151.231 344.933,151.914 344.275,152.06 C338.035,153.443 334.486,156.981 330.041,161.08 C309.035,180.45 292.245,175.192 267.185,174.97 C243.649,174.764 222.869,191.182 218.894,216.395 L218.887,216.409 C216.955,229.607 218.206,243.017 220.274,249.045 C220.274,249.045 213.886,244.795 210.842,241.033 C214.526,264.066 235.54,279.12 235.54,279.12 C232.23,279.88 227.469,279.565 227.469,279.565 C227.489,279.582 239.463,289.052 249.856,292.356 C247.149,294.041 233.45,307.559 226.385,326.168 C219.774,343.583 222.467,364.49 222.467,364.49 L228.209,355.931 C228.209,355.931 224.459,375.006 231.717,393.478 C234.125,387.983 239.386,378.174 239.386,378.174 C239.386,378.174 238.552,398.659 248.414,415.431 C248.667,411.56 250.147,401.705 250.147,401.705 C250.147,401.705 255.806,419.193 268.879,431.421 C293.351,453.138 358.147,457.06 407.463,418.307 Z" id="Fill-2" fill="#F2D8B4"></path>
            <path d="M44.074,281.135 C43.875,281.082 25.113,267.313 22.444,262.779 C6.658,236.14 34.122,181.423 53.666,150.321 C101.964,73.455 182.356,12.793 218.869,21.456 L256.365,40.811 C241.806,49.375 227.725,59.894 219.29,66.89 L211.311,73.581 C211.311,73.581 188.011,89.268 176.423,99.157 C129.969,138.796 84.23,200.16 67.268,259.393 C67.268,259.391 53.331,266.31 44.074,281.135" id="Fill-3" fill="#207EAC"></path>
            <path d="M218.87,21.455 C182.356,12.792 101.966,73.453 53.667,150.32 C53.653,150.342 53.639,150.365 53.625,150.387 L53.82,150.408 L92.305,180.706 C134.561,113.631 187.67,79.045 189.168,78.029 L183.066,36.975 L194.497,31.502 L217.438,38.931 L215.683,31.267 L218.87,21.455" id="Fill-4" fill="#4FB1D3"></path>
            <path d="M256.365,40.81 L219.29,66.888 L216.696,68.918 L183.819,42.056 L183.064,36.976 L194.495,31.503 C195.082,31.693 216.531,38.639 217.436,38.932 L217.819,24.689 L218.869,21.456 L228.911,17.608 C228.925,17.618 256.327,40.777 256.365,40.81" id="Fill-5" fill="#FACD55"></path>
            <path d="M329.528,15.234 C305.009,15.234 277.482,28.13 256.365,40.809 C253.403,42.552 250.464,44.376 247.585,46.235 L236.536,36.973 L240.549,50.92 C239.032,51.962 237.551,53.001 236.101,54.034 L213.271,47.063 L228.377,59.708 C224.928,62.322 221.847,64.769 219.291,66.888 L183.065,36.976 L184.983,50.382 L211.312,73.58 C211.312,73.58 188.012,89.266 176.424,99.156 C129.97,138.794 84.231,200.159 67.269,259.392 L68.233,258.85 C68.364,258.777 68.496,258.717 68.627,258.645 C69.099,258.391 69.569,258.149 70.041,257.911 C70.344,257.759 70.645,257.605 70.948,257.46 C71.433,257.227 71.919,257.01 72.405,256.796 C72.691,256.669 72.979,256.536 73.266,256.417 C73.792,256.196 74.317,255.996 74.843,255.797 C75.086,255.705 75.329,255.604 75.572,255.518 C76.338,255.243 77.101,254.99 77.862,254.763 C89.394,251.323 105.083,249.111 123.449,256.91 C132.672,233.647 143.691,209.979 161.056,187.237 C175.136,168.797 188.67,152.335 204.915,143.281 C235.673,114.387 318.574,83.748 345.133,110.306 C351.413,100.033 356.863,90.308 361.353,78.117 C372.435,48.8 372.637,15.234 329.528,15.234" id="Fill-6" fill="#131B23"></path>
            <polyline id="Fill-7" fill="#131B23" points="224.291 41.15 218.87 21.455 215.682 31.267 217.59 38.98 224.291 41.15"></polyline>
            <path d="M441.21,327.539 C441.21,327.539 441.257,310.717 433.476,297.616 C427.477,304.362 410.827,317.726 388.98,328.098 C368.493,337.824 341.155,346.343 307.277,347.471 L307.276,347.471 C297.79,347.883 291.922,346.339 288.618,357.398 C288.36,358.351 288.193,359.418 288.098,360.51 L288.094,360.622 C288.093,360.622 288.091,360.621 288.09,360.621 C288.061,360.974 288.039,361.328 288.025,361.682 C287.992,362.693 288.002,363.583 288.042,364.36 C288.043,364.379 288.044,364.397 288.045,364.416 C288.048,364.474 288.051,364.53 288.054,364.586 C288.084,365.072 288.126,365.538 288.177,365.976 C288.179,365.997 288.182,366.021 288.184,366.042 C288.187,366.065 288.19,366.088 288.193,366.111 C288.417,367.868 288.765,368.684 288.807,368.777 C288.809,368.781 288.811,368.785 288.812,368.788 L288.855,368.935 C291.56,377.99 298.516,381.997 307.656,384.123 C314.625,385.746 322.027,385.898 322.027,385.898 C378.086,387.471 425.135,352.087 440.915,338.764 C441.185,335.03 441.344,332.367 441.21,327.539 Z M280.165,28.087 C293.557,21.913 307.911,17.035 321.678,15.629 C308.005,18.705 291.344,25.794 271.604,37.873 C271.123,38.151 224.895,69.351 196.652,97.366 C181.261,112.633 119.455,186.748 119.503971,186.68504 C130.8,165.309 138.241,154.815 156.123,132.327 C166.236,119.608 177.028,107.239 188.075,95.818 C191.788,91.978 195.531,88.247 199.286,84.645 C200.718,83.271 233.015,50.2 280.165,28.087 Z" id="Fill-8" fill="#FFFFFE"></path>
            <path d="M407.463,418.307 C400.758,423.576 393.767,428.054 386.63,431.808 C370.125,425.535 359.996,412.17 359.996,412.17 C359.996,412.17 374.147,408.824 393.062,399.205 C416.067,387.515 437.566,370.627 454.001,349.377 C453.349,350.651 446.525,387.616 407.463,418.307 Z M362.543,240.127 C354.56,234.449 341.337,238.968 338.422,248.364 C343.042,248.597 347.944,252.092 347.641,256.564 C350.903,253.407 355.541,251.624 360.053,251.708 C357.877,248.218 358.976,242.202 362.543,240.127 Z M278.78,354.79 C281.295,345.43 288.397,338.015 299.283,337.685 C299.309,337.684 304.167,337.572 306.329,337.517 C358.638,335.909 405.574,316.691 439.18,276.559 C443.801,270.818 438.639,262.933 428.624,262.693 C428.584,262.692 428.481,262.693 428.481,262.693 C426.787,264.484 426.484,267.755 423.682,272.643 C413.46,290.402 399.322,298.523 380.469,307.945 C322.667,336.722 292.693,323.332 280.664,340.951 C277.168,346.136 277.102,351.928 278.78,354.79 C278.78,354.791 278.78,354.79 278.78,354.79 Z M383.366,234.1 C377.838,230.133 377.641,223.213 374.627,191.208 C373.663,181 371.934,167.87 365.687,159.435 C364.395,158.306 362.579,157.009 359.962,157.009 C356.016,156.835 351.555,160.924 349.026,163.718 C341.848,174.078 334.99,180.75 322.86,186.532 C310.584,192.088 298.917,194.103 286.805,193.721 C277.939,193.441 270.175,191.98 262.564,191.883 C248.462,191.663 236.239,196.234 227.331,207.482 C221.222,215.197 218.77,223.352 217.988,233.058 C218.018,234.228 218.07,235.331 218.137,236.37 C218.243,237.912 218.383,239.384 218.554,240.766 C219.176,245.685 220.063,248.237 220.063,248.237 C220.063,248.275 220.057,248.313 220.046,248.348 C220.12,248.589 220.194,248.821 220.271,249.042 C220.271,249.042 213.883,244.793 210.839,241.031 C213.911,260.232 229.024,273.889 233.967,277.9 C234.259,278.124 234.547,278.346 234.829,278.569 C234.854,278.588 234.875,278.611 234.893,278.634 C235.307,278.954 235.536,279.119 235.536,279.119 C232.227,279.879 227.465,279.564 227.465,279.564 C227.486,279.581 239.46,289.051 249.853,292.355 C263.641,280.703 279.274,276.23 292.107,274.842 C299.885,270.015 308.248,265.274 317.227,260.702 C314.508,243.77 329.524,226.719 348.42,225.082 C362.678,224.043 369.614,230.434 374.609,237.269 C377.32,236.404 380.377,235.458 383.793,234.452 C383.649,234.356 383.506,234.238 383.366,234.1 Z M390.187,348.14 C390.043,348.143 389.894,348.175 389.656,348.228 C383.96,349.548 325.222,372.302 288.09,360.639 C287.923,362.671 287.977,366.94 288.809,368.795 C288.81,368.799 288.812,368.803 288.813,368.806 C294.43,369.932 301.539,370.652 309.79,370.652 C358.652,370.652 393.865,348.436 390.187,348.14 Z M116.826,343.578 C116.84,343.568 116.854,343.559 116.868,343.549 C119.843,340.351 121.091,335.883 120.384,331.609 C119.286,325.46 112.318,324.217 107.711,319.442 C107.638,319.367 107.565,319.29 107.494,319.212 C107.416,319.128 107.341,319.043 107.267,318.959 C107.262,318.953 107.258,318.947 107.252,318.941 C105.182,316.558 104.461,313.847 104.63,311.428 C104.994,305.138 110.58,303.369 113.487,304.527 C113.487,304.527 116.935,305.343 119.605,309.068 C119.605,309.068 119.604,309.062 119.603,309.053 C119.197,307.824 119.281,305.838 117.191,302.879 C113.766,298.027 105.899,293.092 94.748,295.455 L94.75,295.455 C92.689,295.891 93.843,295.643 91.81,296.216 C91.492,296.306 91.203,296.394 90.952,296.499 C90.313,296.798 89.722,297.004 89.155,297.305 C88.861,297.469 87.186,298.229 85.169,299.748 C72.634,315.928 93.865,345.271 116.826,343.578 Z" id="Fill-9" fill="#E2B986"></path>
            <path d="M301.644,243.988 C302.702,245.535 302.985,246.703 302.558,247.189 C301.706,248.185 298.661,246.84 294.164,245.088 C282.656,240.795 274.177,240.141 259.168,245.822 C255.373,247.27 252.682,248.388 251.391,248.196 C249.286,247.883 251.324,244.03 255.924,240.292 C265.18,232.908 277.892,230.616 288.755,234.659 C293.51,236.409 298.85,239.902 301.644,243.988 Z M299.364,255.76 C296.209,253.35 290.399,251.734 284.367,252.759 C283.101,252.952 281.932,253.344 280.781,253.653 C280.359,253.757 279.956,253.906 279.563,254.071 C277.069,255.122 274.91,256.254 272.815,258.262 C270.411,260.585 269.728,262.742 270.423,263.273 C271.106,263.818 272.77,263.011 275.341,261.971 C283.954,258.39 290.05,258.295 295.857,258.7 C298.658,258.888 300.532,259.057 300.967,258.294 C301.274,257.776 300.717,256.792 299.364,255.76 Z M113.878,299.936 L113.88,299.938 L113.883,299.94 C115.297,301.064 116.381,302.264 117.189,303.41 C119.839,307.16 118.996,309.348 120.083,310.412 C120.475,310.797 121.035,310.918 121.594,310.69 C123.096,310.07 123.834,307.681 123.975,306.014 L123.976,306.004 C124.353,301.995 122.234,297.49 119.426,294.298 L119.419,294.289 C117.701,292.293 115.439,290.433 112.749,288.935 C110.054,287.434 106.927,286.296 103.489,285.763 C97.548,284.839 91.704,286.022 90.072,286.509 L90.081,286.507 C89.24,286.751 88.2,286.97 87.306,287.321 C77.617,291.099 71.241,298.036 68.404,307.222 L68.403,307.225 L68.402,307.23 C67.353,310.727 66.935,314.103 66.935,317.222 C66.935,319.911 67.245,322.41 67.729,324.637 L67.729,324.639 L67.73,324.643 L67.729,324.639 C68.549,328.386 70.225,332.605 72.842,335.375 L72.85,335.383 C76.121,338.918 79.707,338.242 78.176,334.953 C77.811,334.042 75.835,330.318 75.569,323.577 C75.396,319.166 76.001,314.575 77.62,310.386 C78.516,308.119 79.744,305.914 81.342,303.932 C84.635,299.903 88.681,298.1 89.154,297.837 C89.721,297.535 90.312,297.329 90.951,297.03 C91.201,296.926 91.49,296.837 91.809,296.748 C93.842,296.175 92.689,296.423 94.749,295.986 L94.747,295.986 C102.499,294.343 109.171,296.14 113.878,299.936 Z M112.224,314.905 C111.153,314.057 110.656,313.333 110.36,312.219 C109.923,310.189 110.151,309.01 111.886,307.791 C113.222,306.876 114.297,306.435 114.301,305.86 C114.361,304.772 109.892,303.652 106.767,306.728 C104.173,309.492 103.354,315.254 107.493,319.745 C112.101,324.717 119.267,325.89 120.383,332.142 C120.53,333.028 120.639,334.014 120.562,334.988 C120.578,336.106 120.204,337.715 120.186,337.816 C118.8,343.855 113.069,349.617 103.619,348.149 C101.878,347.895 100.75,347.681 100.414,348.162 C99.685,349.176 103.735,353.81 111.149,353.642 C118.403,353.488 125.599,348.057 127.906,339.894 C127.932,339.788 128.613,337.474 128.669,335.4 C128.799,333.864 128.688,332.284 128.402,330.631 C126.512,320.149 116.097,317.996 112.224,314.905 Z M365.032,240.071 C362.165,239.624 359.345,242.448 358.731,246.379 C358.117,250.31 359.944,253.859 362.811,254.307 C365.677,254.754 368.498,251.93 369.112,247.999 C369.725,244.068 367.898,240.519 365.032,240.071 Z M333.536,251.538 C331.96,254.413 333.879,258.496 337.822,260.656 C341.764,262.817 346.238,262.238 347.814,259.362 C349.389,256.487 347.471,252.404 343.527,250.244 C339.584,248.084 335.111,248.663 333.536,251.538 Z M218.139,135.237 C272.382,100.079 326.564,96.037 345.127,110.31 C345.128,110.307 345.129,110.306 345.13,110.304 C345.096,110.211 344.798,109.387 344.682,109.161 C339.969,99.146 328.971,92.16 319.174,89.357 C320.893,91.142 323.379,94.41 324.384,96.352 C316.991,91.274 307.166,86.802 296.913,84.677 C296.913,84.677 298.134,85.554 298.343,85.749 C300.387,87.653 303.107,90.661 304.22,93.244 C294.42,89.309 282.032,87.104 271.427,89.146 C271.278,89.175 270.101,89.453 270.101,89.453 C270.101,89.453 271.482,89.796 271.789,89.888 C275.306,90.93 280.324,93.073 282.536,96.01 C264.932,92.914 245.566,96.341 235.122,102.181 C236.465,102.125 236.452,102.119 237.588,102.149 C241.43,102.251 249.17,102.773 252.42,104.841 C241.316,107.099 225.246,112.066 216.596,119.506 C218.123,119.328 226.791,118.223 230.338,118.793 C182.723,146.04 161.053,187.234 161.053,187.234 C175.091,168.941 193.303,151.334 218.139,135.237 Z" id="Fill-10" fill="#916D53"></path>
            <path d="M346.115,212.047 C346.041,208.309 346.632,202.132 350.152,200.983 C350.156,200.982 350.154,200.982 350.159,200.981 C356.174,198.895 364.138,214.299 364.504,227.976 C359.751,225.596 354.166,224.586 348.422,225.084 C346.978,220.681 346.286,216.533 346.115,212.047" id="Fill-11" fill="#5B453E"></path>
        </g>
    </g>
</svg>