<svg xmlns="http://www.w3.org/2000/svg" viewBox="0 0 300 300"><path fill="#e8762c" d="M199.496 141.396h-41.244V96.56h-16.217v44.836h-41.249v15.932h41.249v44.829h16.217v-44.829h41.244z"/><path fill="#c62036" d="M116.572 214.595H79.614v-40.142H65.627v40.142H28.678v12.238h36.949v40.151h13.987v-40.151h36.958z"/><path fill="#5a869a" d="M271.611 71.004h-36.948V30.669h-14.001v40.335h-36.947v12.229h36.947v39.959h14.001V83.233h36.948z"/><path fill="#5c6691" d="M181.428 259.139h-25.075v-27.995h-11.946v27.995H119.34v10.809h25.067v28.001h11.946v-28.001h25.075z"/><path fill="#eb9028" d="M116.572 70.997h-37.39V30.669H66.068v40.328h-37.39v11.874h37.39v40.321h13.114V82.871h37.39z"/><path fill="#5c6691" d="M300 143.957h-25.07v-27.99h-11.946v27.99h-25.072v10.812h25.072v27.996h11.946v-27.996H300z"/><path fill-rule="evenodd" clip-rule="evenodd" fill="#1e457e" d="M271.611 214.595h-36.948v-40.142h-14.001v40.142h-36.947v12.238h36.947v40.151h14.001v-40.151h36.948z"/><path fill="#7098a4" d="M145.919 2.051v27.468h-24.8v8.314h24.8v27.468h8.92V37.833h24.807v-8.314h-24.807V2.051zM58.54 145.032H33.646v-26.931h-8.751v26.931H0v8.663l24.895-.155v27.086h8.751v-27.14l24.894-.145z"/></svg>