<svg xmlns="http://www.w3.org/2000/svg" viewBox="0 0 1000 1000"><path d="M961.115 954.568H37.219c-17.2 0-31.143-13.943-31.143-31.143V51.434c0-17.2 13.943-31.143 31.143-31.143h923.895c17.2 0 31.143 13.943 31.143 31.143v871.991c0 17.2-13.943 31.143-31.142 31.143z" fill="#fff" stroke="#000" stroke-miterlimit="10"/><path fill="#d5eaf7" d="M68.362 200.812h861.61v329.674H68.362z"/><path fill="#fff" d="M193.907 247.632h160.221v159.213H193.907z"/><path d="M992.257 92.957H6.077V51.434c0-17.2 13.943-31.143 31.143-31.143h923.895c17.2 0 31.143 13.943 31.143 31.143v41.523z" fill="#545f75"/><circle cx="63.172" cy="56.624" r="15.571" fill="#979ca5"/><circle cx="115.076" cy="56.624" r="15.571" fill="#979ca5"/><circle cx="166.98" cy="56.624" r="15.571" fill="#979ca5"/><path fill="#545f75" d="M420.943 247.632h170.946v20.762H420.943z"/><path fill="#acb3b7" d="M397.777 587.828h202.779v20.762H397.777z"/><path fill="#fff" d="M420.943 299.536h385.124v10.381H420.943z"/><path fill="#e1e6ea" d="M316.602 147.63h60.14v10.381h-60.14zM418.265 147.63h60.14v10.381h-60.14zM519.929 147.63h60.14v10.381h-60.14zM621.592 147.63h60.14v10.381h-60.14z"/><path fill="#acb3b7" d="M68.362 135.173h52.108v7.816H68.362zM68.362 153.411h52.108v7.816H68.362zM68.362 171.648h52.108v7.816H68.362z"/><path fill="#fff" d="M420.943 330.679h385.124v10.381H420.943zM420.943 361.821h329.068v10.381H420.943zM420.943 392.964h233.564v10.381H420.943z"/><path fill="#bfdce8" d="M193.454 427.606h160.898v10.381H193.454zM193.454 458.749H333.59v10.381H193.454z"/><path fill="#e1e6ea" d="M413.738 807.107h170.858v10.381H413.738z"/><path d="M569.087 434.042H429.248a8.305 8.305 0 0 0-8.305 8.305v24.914a8.305 8.305 0 0 0 8.305 8.305h139.839a8.305 8.305 0 0 0 8.305-8.305v-24.914a8.306 8.306 0 0 0-8.305-8.305z" fill="#ff8c71"/><path d="M545.255 868.144h-92.176a6.23 6.23 0 0 0-6.229 6.229v16.244a6.23 6.23 0 0 0 6.229 6.229h92.176a6.23 6.23 0 0 0 6.229-6.229v-16.244a6.23 6.23 0 0 0-6.229-6.229zM294.038 868.144h-92.176a6.23 6.23 0 0 0-6.229 6.229v16.244a6.23 6.23 0 0 0 6.229 6.229h92.176a6.23 6.23 0 0 0 6.229-6.229v-16.244a6.23 6.23 0 0 0-6.229-6.229zM796.471 868.144h-92.176a6.23 6.23 0 0 0-6.229 6.229v16.244a6.23 6.23 0 0 0 6.229 6.229h92.176a6.228 6.228 0 0 0 6.228-6.229v-16.244a6.228 6.228 0 0 0-6.228-6.229z" fill="#acb3b7"/><circle cx="499.167" cy="727.174" r="62.285" fill="#ffdf7b"/><path fill="#e1e6ea" d="M664.955 807.107h170.858v10.381H664.955z"/><circle cx="750.384" cy="727.174" r="62.285" fill="#ff8c71"/><path fill="#e1e6ea" d="M162.522 807.107H333.38v10.381H162.522zM435.095 833.059h128.144v10.381H435.095zM686.312 833.059h128.144v10.381H686.312zM183.879 833.059h128.144v10.381H183.879z"/><circle cx="247.951" cy="727.174" r="62.285" fill="#545f75"/><path fill="#d5eaf7" d="M190.253 403.139l160.213-159.22 7.318 7.364L197.57 410.502z"/><path fill="#d5eaf7" d="M190.249 251.331l7.317-7.363 160.213 159.22-7.317 7.362z"/></svg>